<svg xmlns="http://www.w3.org/2000/svg" viewBox="0 0 420 230">
  <rect width="420" height="230" fill="white"/>
  <!-- Batang pohon kelapa -->
  <path d="M86 208 Q81 168 77 132 Q73 102 76 74" stroke="#0d2a6b" stroke-width="6" fill="none" stroke-linecap="round"/>
  <!-- Daun-daun kelapa -->
  <path d="M77 82 Q50 95 20 110 Q44 90 77 82" fill="#1565c0"/>
  <path d="M77 70 Q46 56 16 42 Q44 59 77 70" fill="#1976d2"/>
  <path d="M76 64 Q69 33 71 8 Q74 33 76 64" fill="#1e88e5"/>
  <path d="M78 67 Q104 47 128 35 Q104 58 78 67" fill="#1565c0"/>
  <path d="M79 78 Q112 78 138 85 Q108 76 79 78" fill="#0d47a1"/>
  <path d="M77 74 Q50 65 28 56 Q51 68 77 74" fill="#1e88e5" opacity=".85"/>
  <!-- Buah kelapa -->
  <circle cx="79" cy="80" r="6" fill="#0d2a6b"/>
  <circle cx="89" cy="74" r="5" fill="#0d2a6b"/>
  <!-- Atap rumah besar -->
  <polygon points="150,30 252,30 290,84 112,84" fill="#0d2a6b"/>
  <!-- Cerobong -->
  <rect x="260" y="38" width="22" height="32" fill="#1565c0"/>
  <!-- Dinding -->
  <rect x="126" y="84" width="162" height="80" fill="#1976d2"/>
  <!-- Jendela 4 kotak -->
  <rect x="176" y="96" width="54" height="48" fill="white" rx="3"/>
  <line x1="203" y1="96" x2="203" y2="144" stroke="#0d47a1" stroke-width="2.5"/>
  <line x1="176" y1="120" x2="230" y2="120" stroke="#0d47a1" stroke-width="2.5"/>
  <rect x="179" y="99" width="21" height="18" fill="#64b5f6" opacity=".7"/>
  <rect x="206" y="99" width="21" height="18" fill="#90caf9" opacity=".7"/>
  <rect x="179" y="123" width="21" height="18" fill="#bbdefb" opacity=".7"/>
  <rect x="206" y="123" width="21" height="18" fill="#90caf9" opacity=".7"/>
  <!-- Pintu -->
  <rect x="138" y="114" width="28" height="50" fill="#0d2a6b" rx="3"/>
  <!-- Rumah kecil kanan -->
  <polygon points="302,62 356,62 372,84 286,84" fill="#1565c0"/>
  <rect x="288" y="84" width="82" height="46" fill="#1976d2"/>
  <rect x="308" y="92" width="32" height="24" fill="white" rx="2"/>
  <line x1="324" y1="92" x2="324" y2="116" stroke="#0d47a1" stroke-width="2"/>
  <line x1="308" y1="104" x2="340" y2="104" stroke="#0d47a1" stroke-width="2"/>
  <!-- Gelombang -->
  <path d="M62 172 Q90 162 118 172 Q146 182 174 172 Q202 162 230 172 Q258 182 286 172 Q314 162 342 172 Q370 182 390 172 L390 188 L62 188 Z" fill="#1976d2" opacity=".4"/>
  <path d="M50 180 Q82 170 114 180 Q146 190 178 180 Q210 170 242 180 Q274 190 306 180 Q338 170 390 180 L390 196 L50 196 Z" fill="#0d47a1" opacity=".3"/>
  <!-- Teks LINGKUNGAN -->
  <text x="120" y="176" font-family="Arial Black,Arial" font-weight="900" font-size="23" fill="#0d2a6b" letter-spacing="2">LINGKUNGAN</text>
  <!-- Teks RT 04 - RW 02 -->
  <text x="116" y="199" font-family="Arial Black,Arial" font-weight="900" font-size="21" fill="#1976d2" letter-spacing="1">RT 04 - RW 02</text>
  <!-- Sub teks kanan -->
  <text x="252" y="211" font-family="Arial,sans-serif" font-weight="700" font-size="9.5" fill="#1565c0">kP. GEDONG - JOMBANG</text>
  <text x="260" y="223" font-family="Arial,sans-serif" font-weight="700" font-size="9.5" fill="#1565c0">CIPUTAT - TANGERANG SELATAN</text>
</svg>
