<svg xmlns="http://www.w3.org/2000/svg" viewBox="0 0 400 450">
  <rect width="400" height="450" fill="white"/>
  <!-- Teks atas -->
  <text x="200" y="34" font-family="Arial Black,Arial" font-weight="900" font-size="21" fill="#cc0000" text-anchor="middle" letter-spacing=".5">KOTA TANGERANG SELATAN</text>
  <!-- Perisai biru -->
  <path d="M58,52 L342,52 L342,305 Q342,378 200,418 Q58,378 58,305 Z" fill="#29b6f6"/>
  <path d="M58,52 L342,52 L342,305 Q342,378 200,418 Q58,378 58,305 Z" fill="none" stroke="#1a7ab5" stroke-width="3"/>
  <!-- Bintang emas -->
  <polygon points="200,60 208,83 232,83 214,97 222,120 200,106 178,120 186,97 168,83 192,83" fill="#8b7536"/>
  <!-- Bingkai kuning -->
  <rect x="93" y="108" width="214" height="193" fill="#f5c842" rx="3"/>
  <rect x="98" y="113" width="204" height="183" fill="#f5c842" rx="2"/>
  <!-- Atap rumah adat -->
  <polygon points="148,122 200,98 252,122" fill="#5c2a0e"/>
  <polygon points="126,148 200,116 274,148" fill="#6b3010"/>
  <rect x="194" y="116" width="12" height="14" fill="#5c2a0e"/>
  <!-- Badan rumah -->
  <rect x="126" y="148" width="148" height="78" fill="#7a3a14"/>
  <path d="M126,148 L274,148 L274,156 L126,156 Z" fill="#8b4513" opacity=".7"/>
  <!-- Pintu -->
  <rect x="180" y="178" width="40" height="48" fill="#4a1a05" rx="2"/>
  <circle cx="192" cy="204" r="3" fill="#c8a028"/>
  <!-- Jendela kiri -->
  <rect x="138" y="163" width="30" height="24" fill="#c8a028" opacity=".35" rx="1"/>
  <line x1="153" y1="163" x2="153" y2="187" stroke="#8b5e0a" stroke-width="1.5"/>
  <line x1="138" y1="175" x2="168" y2="175" stroke="#8b5e0a" stroke-width="1.5"/>
  <!-- Jendela kanan -->
  <rect x="232" y="163" width="30" height="24" fill="#c8a028" opacity=".35" rx="1"/>
  <line x1="247" y1="163" x2="247" y2="187" stroke="#8b5e0a" stroke-width="1.5"/>
  <line x1="232" y1="175" x2="262" y2="175" stroke="#8b5e0a" stroke-width="1.5"/>
  <!-- Buku terbuka -->
  <path d="M112,232 Q155,224 200,227 L200,282 Q155,279 112,287 Z" fill="white" stroke="#aaa" stroke-width="1.5"/>
  <path d="M200,227 Q245,224 288,232 L288,287 Q245,279 200,282 Z" fill="white" stroke="#aaa" stroke-width="1.5"/>
  <path d="M200,225 Q198,254 200,282" stroke="#bbb" stroke-width="2" fill="none"/>
  <line x1="120" y1="242" x2="194" y2="240" stroke="#ccc" stroke-width="1.5"/>
  <line x1="119" y1="251" x2="193" y2="249" stroke="#ccc" stroke-width="1.5"/>
  <line x1="118" y1="260" x2="192" y2="258" stroke="#ccc" stroke-width="1.5"/>
  <line x1="206" y1="240" x2="280" y2="242" stroke="#ccc" stroke-width="1.5"/>
  <line x1="207" y1="249" x2="281" y2="251" stroke="#ccc" stroke-width="1.5"/>
  <line x1="208" y1="258" x2="282" y2="260" stroke="#ccc" stroke-width="1.5"/>
  <line x1="200" y1="232" x2="200" y2="278" stroke="#555" stroke-width="2.5"/>
  <polygon points="196,278 200,290 204,278" fill="#555"/>
  <!-- Strip hijau dan kuning -->
  <rect x="98" y="284" width="204" height="12" fill="#2d8a3e"/>
  <rect x="98" y="294" width="204" height="5" fill="#f5c842"/>
  <!-- Untaian padi kiri -->
  <path d="M113,72 Q88,118 83,178 Q80,228 88,278" stroke="#c8a028" stroke-width="2.5" fill="none"/>
  <ellipse cx="80"  cy="88"  rx="8" ry="14" fill="#f5c842" transform="rotate(-30 80 88)"/>
  <ellipse cx="75"  cy="108" rx="8" ry="14" fill="#f5c842" transform="rotate(-25 75 108)"/>
  <ellipse cx="73"  cy="130" rx="8" ry="14" fill="#f5c842" transform="rotate(-20 73 130)"/>
  <ellipse cx="75"  cy="152" rx="8" ry="14" fill="#f5c842" transform="rotate(-18 75 152)"/>
  <ellipse cx="80"  cy="173" rx="8" ry="14" fill="#f5c842" transform="rotate(-15 80 173)"/>
  <ellipse cx="85"  cy="194" rx="8" ry="14" fill="#f5c842" transform="rotate(-12 85 194)"/>
  <ellipse cx="92"  cy="214" rx="8" ry="14" fill="#f5c842" transform="rotate(-10 92 214)"/>
  <ellipse cx="100" cy="232" rx="8" ry="14" fill="#f5c842" transform="rotate(-8 100 232)"/>
  <!-- Untaian kapas kanan -->
  <path d="M287,72 Q312,118 317,178 Q320,228 312,278" stroke="#2d8a3e" stroke-width="2.5" fill="none"/>
  <circle cx="320" cy="88"  r="10" fill="white" stroke="#2d8a3e" stroke-width="1.5"/>
  <circle cx="325" cy="108" r="10" fill="white" stroke="#2d8a3e" stroke-width="1.5"/>
  <circle cx="327" cy="130" r="10" fill="white" stroke="#2d8a3e" stroke-width="1.5"/>
  <circle cx="325" cy="152" r="10" fill="white" stroke="#2d8a3e" stroke-width="1.5"/>
  <circle cx="320" cy="173" r="10" fill="white" stroke="#2d8a3e" stroke-width="1.5"/>
  <circle cx="315" cy="194" r="10" fill="white" stroke="#2d8a3e" stroke-width="1.5"/>
  <circle cx="308" cy="214" r="10" fill="white" stroke="#2d8a3e" stroke-width="1.5"/>
  <ellipse cx="328" cy="88"  rx="8" ry="13" fill="#2d8a3e" transform="rotate(28 328 88)"/>
  <ellipse cx="334" cy="130" rx="8" ry="13" fill="#2d8a3e" transform="rotate(22 334 130)"/>
  <ellipse cx="328" cy="173" rx="8" ry="13" fill="#2d8a3e" transform="rotate(18 328 173)"/>
  <!-- Simpul bawah -->
  <rect x="170" y="299" width="60" height="11" fill="#f5c842" rx="3"/>
  <line x1="178" y1="299" x2="178" y2="310" stroke="#c8a028" stroke-width="2"/>
  <line x1="190" y1="299" x2="190" y2="310" stroke="#c8a028" stroke-width="2"/>
  <line x1="202" y1="299" x2="202" y2="310" stroke="#c8a028" stroke-width="2"/>
  <line x1="214" y1="299" x2="214" y2="310" stroke="#c8a028" stroke-width="2"/>
  <line x1="222" y1="299" x2="222" y2="310" stroke="#c8a028" stroke-width="2"/>
  <!-- Teks bawah lengkung -->
  <path id="arc1" d="M 78,395 A 130,130 0 0,0 322,395" fill="none"/>
  <text font-family="Arial Black,Arial" font-weight="900" font-size="18" fill="#cc0000">
    <textPath href="#arc1" startOffset="6%">CERDAS MODERN RELIGIUS</textPath>
  </text>
</svg>
